<svg width="43" height="40" viewBox="0 0 43 40" fill="none" xmlns="http://www.w3.org/2000/svg">
<path d="M21.4231 0C24.2053 0 26.9603 0.517315 29.5307 1.52241C32.1011 2.5275 34.4366 4.00069 36.4039 5.85786C38.3712 7.71504 39.9317 9.91982 40.9964 12.3463C42.0611 14.7728 42.6091 17.3736 42.6091 20C42.6091 25.3043 40.377 30.3914 36.4039 34.1421C32.4307 37.8929 27.042 40 21.4231 40C18.641 40 15.886 39.4827 13.3156 38.4776C10.7452 37.4725 8.40971 35.9993 6.44241 34.1421C2.46927 30.3914 0.237183 25.3043 0.237183 20C0.237183 14.6957 2.46927 9.60859 6.44241 5.85786C10.4155 2.10714 15.8043 0 21.4231 0ZM32.0161 28V26L29.8975 24V18.78C29.8975 16.6 29.3255 14.68 28.2238 13.06C27.1434 11.44 25.5756 10.42 23.5417 10V9C23.5417 8.46957 23.3185 7.96086 22.9212 7.58579C22.5239 7.21071 21.985 7 21.4231 7C20.8613 7 20.3224 7.21071 19.9251 7.58579C19.5278 7.96086 19.3045 8.46957 19.3045 9V10C17.2707 10.42 15.7029 11.44 14.6224 13.06C13.5208 14.68 12.9488 16.6 12.9488 18.78V24L10.8302 26V28H32.0161ZM24.601 30H18.2452C18.2452 30.7956 18.5801 31.5587 19.176 32.1213C19.772 32.6839 20.5803 33 21.4231 33C22.266 33 23.0743 32.6839 23.6703 32.1213C24.2662 31.5587 24.601 30.7956 24.601 30Z" fill="black"/>
</svg>
