<svg width="100" height="90" viewBox="0 0 100 90" fill="none" xmlns="http://www.w3.org/2000/svg">
<path d="M95 46.1C95 18.65 73.7 0 50 0C26.55 0 5 18.25 5 46.4C2 48.1 0 51.3 0 55V65C0 70.5 4.5 75 10 75H15V44.5C15 25.15 30.65 9.5 50 9.5C69.35 9.5 85 25.15 85 44.5V80H45V90H85C90.5 90 95 85.5 95 80V73.9C97.95 72.35 100 69.3 100 65.7V54.2C100 50.7 97.95 47.65 95 46.1Z" fill="black"/>
<path d="M35 55C37.7614 55 40 52.7614 40 50C40 47.2386 37.7614 45 35 45C32.2386 45 30 47.2386 30 50C30 52.7614 32.2386 55 35 55Z" fill="black"/>
<path d="M65 55C67.7614 55 70 52.7614 70 50C70 47.2386 67.7614 45 65 45C62.2386 45 60 47.2386 60 50C60 52.7614 62.2386 55 65 55Z" fill="black"/>
<path d="M80 40.15C77.6 25.9 65.2 15 50.25 15C35.1 15 18.8 27.55 20.1 47.25C32.45 42.2 41.75 31.2 44.4 17.8C50.95 30.95 64.4 40 80 40.15Z" fill="black"/>
</svg>
